<?xml version="1.0" encoding="utf-8"?>
<!-- Generator: Adobe Illustrator 27.0.0, SVG Export Plug-In . SVG Version: 6.00 Build 0)  -->
<svg version="1.1" id="Layer_1" xmlns="http://www.w3.org/2000/svg" xmlns:xlink="http://www.w3.org/1999/xlink" x="0px" y="0px"
	 viewBox="0 0 48 48" style="enable-background:new 0 0 48 48;" xml:space="preserve">
<style type="text/css">
	.st0{fill:#C1272D;}
	.st1{fill:#2E3192;}
</style>
<g>
	<path class="st0" d="M20.6,45c1.1-3.3,2-6.7,2.3-8.1c0.4-0.1,0.8-0.1,1.2-0.1c2.8-0.2,3.8-1.1,3.8-6c0-6.2,0-7,0-7.8
		c0-0.5,0-1.1,0-3.3l0-1l-5.4,0.1l8.1-14.9l8.7,14.9h-5.1l0.1,6.7c0,0.7-0.1,2.8-0.3,8.1c-0.2,5.1-3.1,8.6-8.7,10.6
		c-1.3,0.5-1.7,0.6-2.5,0.7c-0.9,0.1-1.5,0.2-1.8,0.2C20.7,45,20.6,45,20.6,45z"/>
	<path class="st1" d="M30.5,5.9l6.9,11.8h-2.3h-2l0,2l0.1,5.7c0,0.8-0.1,3-0.3,8.1c-0.2,4.7-2.7,7.8-8.1,9.7
		c-1.3,0.5-1.6,0.5-2.3,0.6c-0.2,0-0.3,0-0.5,0.1c0.8-2.4,1.4-4.6,1.7-6c0.1,0,0.3,0,0.4,0c3.6-0.2,4.7-1.9,4.7-7c0-6.2,0-7,0-7.8
		c0-0.5,0-1.1,0-3.3l0-2l-2,0l-2.7,0L30.5,5.9 M30.4,1.8l-9.8,18l6.1-0.1c0,5.5,0.1,0.8,0.1,11.1c0,6.2-1.5,4.5-4.8,5.2
		c0,0-1.3,5.4-2.9,10c0.8,0,1.3,0,1.7,0c0.2-0.1,0.8-0.1,1.8-0.2c0.9-0.1,1.4-0.2,2.7-0.7c4.8-1.7,9.1-4.9,9.4-11.5
		c0.2-5.2,0.3-7.3,0.3-8.1l-0.1-5.7h5.8L30.4,1.8L30.4,1.8z M35.1,25.1c0,0,0,0.1,0,0.4l0,0.3C35.1,25.8,35.2,25.1,35.1,25.1
		L35.1,25.1z M20.9,46c-0.3,0.1-0.1,0.1,0.2,0.1C21.5,46.1,22.1,46.1,20.9,46L20.9,46z"/>
</g>
</svg>
